<svg width="90" height="90" viewBox="0 0 90 90" fill="none" xmlns="http://www.w3.org/2000/svg">
<path d="M75.9472 60C83.7083 60 89.9999 53.2843 89.9999 45C89.9999 36.7158 83.7083 30 75.9472 30C68.1861 30 61.8945 36.7158 61.8945 45C61.8945 53.2843 68.1861 60 75.9472 60Z" fill="#7FC241"/>
<path d="M74.9426 30H90V46.0714H74.9426V30Z" fill="#7FC241"/>
<path d="M4.44576 52.8172H0L6.77401 31.8718H12.1205L18.8849 52.8172H14.4391L9.52394 36.6582H9.37064L4.44576 52.8172ZM4.16788 44.5843H14.6691V48.0411H4.16788V44.5843ZM28.8208 37.1082V40.3809H19.7376V37.1082H28.8208ZM21.8168 52.8172V35.9729C21.8168 34.8343 22.0244 33.89 22.4396 33.14C22.8612 32.39 23.4361 31.8275 24.1643 31.4525C24.8925 31.0775 25.7196 30.89 26.6459 30.89C27.2718 30.89 27.8435 30.9411 28.3609 31.0434C28.8847 31.1457 29.2744 31.2377 29.5299 31.3195L28.8017 34.5923C28.6419 34.5377 28.444 34.4866 28.2076 34.4388C27.9776 34.3911 27.7413 34.3673 27.4986 34.3673C26.8982 34.3673 26.4798 34.5173 26.2434 34.8173C26.0071 35.1104 25.8889 35.5229 25.8889 36.0547V52.8172H21.8168ZM31.3143 58.7082V37.1082H35.3386V39.7468H35.5205C35.6994 39.3241 35.9579 38.8945 36.2962 38.4582C36.6417 38.015 37.0883 37.6468 37.6381 37.3536C38.1941 37.0536 38.884 36.9036 39.7077 36.9036C40.7808 36.9036 41.7711 37.2036 42.6777 37.8036C43.5852 38.3968 44.3098 39.2934 44.8525 40.4934C45.3962 41.6866 45.6671 43.1831 45.6671 44.9831C45.6671 46.7354 45.4024 48.2149 44.8719 49.4218C44.3487 50.6218 43.6333 51.5321 42.7257 52.1525C41.8253 52.7661 40.8156 53.073 39.6985 53.073C38.9064 53.073 38.2319 52.9331 37.6759 52.6536C37.1271 52.374 36.6764 52.023 36.3259 51.6002C35.9743 51.1706 35.7055 50.7377 35.5205 50.3013H35.3958V58.7082H31.3143ZM35.31 44.9627C35.31 45.8967 35.4316 46.7115 35.6738 47.407C35.9171 48.1025 36.2676 48.6445 36.7275 49.0331C37.1874 49.4149 37.7465 49.6058 38.4046 49.6058C39.0689 49.6058 39.6311 49.4115 40.091 49.023C40.5509 48.6275 40.8994 48.0821 41.1355 47.3866C41.3777 46.6843 41.4993 45.8763 41.4993 44.9627C41.4993 44.0558 41.3807 43.2582 41.1447 42.5695C40.9086 41.8809 40.5601 41.3422 40.1002 40.9536C39.6403 40.565 39.0751 40.3706 38.4046 40.3706C37.7403 40.3706 37.1782 40.5582 36.7183 40.9332C36.2645 41.3082 35.9171 41.84 35.6738 42.5286C35.4316 43.2173 35.31 44.0286 35.31 44.9627ZM52.5851 53.1139C51.6459 53.1139 50.8088 52.94 50.075 52.5922C49.3402 52.2377 48.7587 51.7161 48.3304 51.0275C47.9094 50.3321 47.6988 49.4661 47.6988 48.4297C47.6988 47.557 47.8491 46.824 48.1485 46.2309C48.449 45.6377 48.8578 45.1604 49.3749 44.7991C49.8931 44.4377 50.4808 44.1649 51.1379 43.9809C51.8022 43.7968 52.4992 43.6673 53.2269 43.5922C54.0834 43.4968 54.7732 43.4082 55.2965 43.3264C55.8208 43.2377 56.1999 43.1082 56.4371 42.9377C56.6731 42.7673 56.7917 42.5149 56.7917 42.1809V42.1195C56.7917 41.4718 56.5995 40.9706 56.2163 40.6161C55.8392 40.2616 55.3026 40.0843 54.6066 40.0843C53.8718 40.0843 53.2872 40.2582 52.8529 40.6059C52.4185 40.9468 52.1313 41.3764 51.9913 41.8945L48.216 41.5673C48.4071 40.6127 48.7842 39.7877 49.3463 39.0922C49.9084 38.39 50.6341 37.8513 51.5212 37.4763C52.4154 37.0945 53.4507 36.9036 54.626 36.9036C55.4437 36.9036 56.2255 37.0059 56.9736 37.2104C57.7268 37.415 58.3942 37.732 58.9757 38.1616C59.5634 38.5911 60.0264 39.1434 60.3647 39.8184C60.704 40.4866 60.8726 41.2877 60.8726 42.2218V52.8172H57.0022V50.6388H56.8867C56.6507 51.1297 56.3349 51.5627 55.9383 51.9377C55.5428 52.3058 55.0665 52.5957 54.5106 52.807C53.9556 53.0115 53.3128 53.1139 52.5851 53.1139ZM53.7543 50.107C54.3542 50.107 54.8846 49.9809 55.3445 49.7286C55.8044 49.4695 56.1652 49.1218 56.4268 48.6854C56.6895 48.2491 56.8203 47.7548 56.8203 47.2025V45.5354C56.6926 45.624 56.5168 45.7058 56.2929 45.7809C56.0763 45.8491 55.83 45.9139 55.5551 45.9752C55.2801 46.0297 55.0062 46.0809 54.7313 46.1286C54.4564 46.1695 54.207 46.207 53.9842 46.2412C53.5049 46.3161 53.0869 46.4354 52.7292 46.5991C52.3715 46.7627 52.0935 46.9843 51.8952 47.2639C51.697 47.5366 51.5978 47.8775 51.5978 48.2866C51.5978 48.8797 51.7992 49.3331 52.2018 49.6467C52.6106 49.9536 53.1278 50.107 53.7543 50.107Z" fill="black"/>
</svg>
